G04 #@! TF.GenerationSoftware,KiCad,Pcbnew,(5.1.6)-1*
G04 #@! TF.CreationDate,2020-06-20T22:30:41-04:00*
G04 #@! TF.ProjectId,first-keep-pcb,66697273-742d-46b6-9565-702d7063622e,rev?*
G04 #@! TF.SameCoordinates,Original*
G04 #@! TF.FileFunction,Soldermask,Bot*
G04 #@! TF.FilePolarity,Negative*
%FSLAX46Y46*%
G04 Gerber Fmt 4.6, Leading zero omitted, Abs format (unit mm)*
G04 Created by KiCad (PCBNEW (5.1.6)-1) date 2020-06-20 22:30:41*
%MOMM*%
%LPD*%
G01*
G04 APERTURE LIST*
%ADD10R,1.500000X1.300000*%
%ADD11O,1.800000X2.800000*%
%ADD12R,0.600000X2.350000*%
%ADD13R,0.650000X1.600000*%
%ADD14R,1.600000X0.650000*%
%ADD15R,1.900000X1.200000*%
%ADD16C,1.850000*%
%ADD17C,2.350000*%
%ADD18C,4.087800*%
%ADD19R,1.300000X1.000000*%
G04 APERTURE END LIST*
D10*
G04 #@! TO.C,Y1*
X105875000Y-66618750D03*
X103675000Y-66618750D03*
X103675000Y-68318750D03*
X105875000Y-68318750D03*
G04 #@! TD*
D11*
G04 #@! TO.C,USB1*
X81281250Y-61118750D03*
X88581250Y-61118750D03*
X88581250Y-65618750D03*
X81281250Y-65618750D03*
D12*
X83331250Y-65618750D03*
X84131250Y-65618750D03*
X84931250Y-65618750D03*
X85731250Y-65618750D03*
X86531250Y-65618750D03*
G04 #@! TD*
D13*
G04 #@! TO.C,U1*
X100775000Y-85868750D03*
X101575000Y-85868750D03*
X102375000Y-85868750D03*
X103175000Y-85868750D03*
X103975000Y-85868750D03*
X104775000Y-85868750D03*
X105575000Y-85868750D03*
X106375000Y-85868750D03*
X107175000Y-85868750D03*
X107975000Y-85868750D03*
X108775000Y-85868750D03*
D14*
X110475000Y-84168750D03*
X110475000Y-83368750D03*
X110475000Y-82568750D03*
X110475000Y-81768750D03*
X110475000Y-80968750D03*
X110475000Y-80168750D03*
X110475000Y-79368750D03*
X110475000Y-78568750D03*
X110475000Y-77768750D03*
X110475000Y-76968750D03*
X110475000Y-76168750D03*
D13*
X108775000Y-74468750D03*
X107975000Y-74468750D03*
X107175000Y-74468750D03*
X106375000Y-74468750D03*
X105575000Y-74468750D03*
X104775000Y-74468750D03*
X103975000Y-74468750D03*
X103175000Y-74468750D03*
X102375000Y-74468750D03*
X101575000Y-74468750D03*
X100775000Y-74468750D03*
D14*
X99075000Y-76168750D03*
X99075000Y-76968750D03*
X99075000Y-77768750D03*
X99075000Y-78568750D03*
X99075000Y-79368750D03*
X99075000Y-80168750D03*
X99075000Y-80968750D03*
X99075000Y-81768750D03*
X99075000Y-82568750D03*
X99075000Y-83368750D03*
X99075000Y-84168750D03*
G04 #@! TD*
D15*
G04 #@! TO.C,SW1*
X88825000Y-94433000D03*
X82625000Y-90733000D03*
X88825000Y-90733000D03*
X82625000Y-94433000D03*
G04 #@! TD*
G04 #@! TO.C,R4*
G36*
G01*
X114781250Y-84690000D02*
X113818750Y-84690000D01*
G75*
G02*
X113550000Y-84421250I0J268750D01*
G01*
X113550000Y-83883750D01*
G75*
G02*
X113818750Y-83615000I268750J0D01*
G01*
X114781250Y-83615000D01*
G75*
G02*
X115050000Y-83883750I0J-268750D01*
G01*
X115050000Y-84421250D01*
G75*
G02*
X114781250Y-84690000I-268750J0D01*
G01*
G37*
G36*
G01*
X114781250Y-86565000D02*
X113818750Y-86565000D01*
G75*
G02*
X113550000Y-86296250I0J268750D01*
G01*
X113550000Y-85758750D01*
G75*
G02*
X113818750Y-85490000I268750J0D01*
G01*
X114781250Y-85490000D01*
G75*
G02*
X115050000Y-85758750I0J-268750D01*
G01*
X115050000Y-86296250D01*
G75*
G02*
X114781250Y-86565000I-268750J0D01*
G01*
G37*
G04 #@! TD*
G04 #@! TO.C,R3*
G36*
G01*
X92990750Y-72091500D02*
X93953250Y-72091500D01*
G75*
G02*
X94222000Y-72360250I0J-268750D01*
G01*
X94222000Y-72897750D01*
G75*
G02*
X93953250Y-73166500I-268750J0D01*
G01*
X92990750Y-73166500D01*
G75*
G02*
X92722000Y-72897750I0J268750D01*
G01*
X92722000Y-72360250D01*
G75*
G02*
X92990750Y-72091500I268750J0D01*
G01*
G37*
G36*
G01*
X92990750Y-70216500D02*
X93953250Y-70216500D01*
G75*
G02*
X94222000Y-70485250I0J-268750D01*
G01*
X94222000Y-71022750D01*
G75*
G02*
X93953250Y-71291500I-268750J0D01*
G01*
X92990750Y-71291500D01*
G75*
G02*
X92722000Y-71022750I0J268750D01*
G01*
X92722000Y-70485250D01*
G75*
G02*
X92990750Y-70216500I268750J0D01*
G01*
G37*
G04 #@! TD*
G04 #@! TO.C,R2*
G36*
G01*
X87095250Y-71228000D02*
X86132750Y-71228000D01*
G75*
G02*
X85864000Y-70959250I0J268750D01*
G01*
X85864000Y-70421750D01*
G75*
G02*
X86132750Y-70153000I268750J0D01*
G01*
X87095250Y-70153000D01*
G75*
G02*
X87364000Y-70421750I0J-268750D01*
G01*
X87364000Y-70959250D01*
G75*
G02*
X87095250Y-71228000I-268750J0D01*
G01*
G37*
G36*
G01*
X87095250Y-73103000D02*
X86132750Y-73103000D01*
G75*
G02*
X85864000Y-72834250I0J268750D01*
G01*
X85864000Y-72296750D01*
G75*
G02*
X86132750Y-72028000I268750J0D01*
G01*
X87095250Y-72028000D01*
G75*
G02*
X87364000Y-72296750I0J-268750D01*
G01*
X87364000Y-72834250D01*
G75*
G02*
X87095250Y-73103000I-268750J0D01*
G01*
G37*
G04 #@! TD*
G04 #@! TO.C,R1*
G36*
G01*
X83793250Y-71228000D02*
X82830750Y-71228000D01*
G75*
G02*
X82562000Y-70959250I0J268750D01*
G01*
X82562000Y-70421750D01*
G75*
G02*
X82830750Y-70153000I268750J0D01*
G01*
X83793250Y-70153000D01*
G75*
G02*
X84062000Y-70421750I0J-268750D01*
G01*
X84062000Y-70959250D01*
G75*
G02*
X83793250Y-71228000I-268750J0D01*
G01*
G37*
G36*
G01*
X83793250Y-73103000D02*
X82830750Y-73103000D01*
G75*
G02*
X82562000Y-72834250I0J268750D01*
G01*
X82562000Y-72296750D01*
G75*
G02*
X82830750Y-72028000I268750J0D01*
G01*
X83793250Y-72028000D01*
G75*
G02*
X84062000Y-72296750I0J-268750D01*
G01*
X84062000Y-72834250D01*
G75*
G02*
X83793250Y-73103000I-268750J0D01*
G01*
G37*
G04 #@! TD*
D16*
G04 #@! TO.C,MX4*
X150336250Y-88106250D03*
X140176250Y-88106250D03*
D17*
X142756250Y-84106250D03*
D18*
X145256250Y-88106250D03*
G36*
G01*
X140661541Y-86440810D02*
X140661541Y-86440811D01*
G75*
G02*
X140571689Y-84781541I784709J874561D01*
G01*
X141881691Y-83321541D01*
G75*
G02*
X143540961Y-83231689I874561J-784709D01*
G01*
X143540961Y-83231689D01*
G75*
G02*
X143630813Y-84890959I-784709J-874561D01*
G01*
X142320811Y-86350959D01*
G75*
G02*
X140661541Y-86440811I-874561J784709D01*
G01*
G37*
D17*
X147796250Y-83026250D03*
G36*
G01*
X147675407Y-84778466D02*
X147675407Y-84778466D01*
G75*
G02*
X146584034Y-83525407I80843J1172216D01*
G01*
X146624034Y-82945407D01*
G75*
G02*
X147877093Y-81854034I1172216J-80843D01*
G01*
X147877093Y-81854034D01*
G75*
G02*
X148968466Y-83107093I-80843J-1172216D01*
G01*
X148928466Y-83687093D01*
G75*
G02*
X147675407Y-84778466I-1172216J80843D01*
G01*
G37*
G04 #@! TD*
D16*
G04 #@! TO.C,MX3*
X150336250Y-69056250D03*
X140176250Y-69056250D03*
D17*
X142756250Y-65056250D03*
D18*
X145256250Y-69056250D03*
G36*
G01*
X140661541Y-67390810D02*
X140661541Y-67390811D01*
G75*
G02*
X140571689Y-65731541I784709J874561D01*
G01*
X141881691Y-64271541D01*
G75*
G02*
X143540961Y-64181689I874561J-784709D01*
G01*
X143540961Y-64181689D01*
G75*
G02*
X143630813Y-65840959I-784709J-874561D01*
G01*
X142320811Y-67300959D01*
G75*
G02*
X140661541Y-67390811I-874561J784709D01*
G01*
G37*
D17*
X147796250Y-63976250D03*
G36*
G01*
X147675407Y-65728466D02*
X147675407Y-65728466D01*
G75*
G02*
X146584034Y-64475407I80843J1172216D01*
G01*
X146624034Y-63895407D01*
G75*
G02*
X147877093Y-62804034I1172216J-80843D01*
G01*
X147877093Y-62804034D01*
G75*
G02*
X148968466Y-64057093I-80843J-1172216D01*
G01*
X148928466Y-64637093D01*
G75*
G02*
X147675407Y-65728466I-1172216J80843D01*
G01*
G37*
G04 #@! TD*
D16*
G04 #@! TO.C,MX2*
X131286250Y-88106250D03*
X121126250Y-88106250D03*
D17*
X123706250Y-84106250D03*
D18*
X126206250Y-88106250D03*
G36*
G01*
X121611541Y-86440810D02*
X121611541Y-86440811D01*
G75*
G02*
X121521689Y-84781541I784709J874561D01*
G01*
X122831691Y-83321541D01*
G75*
G02*
X124490961Y-83231689I874561J-784709D01*
G01*
X124490961Y-83231689D01*
G75*
G02*
X124580813Y-84890959I-784709J-874561D01*
G01*
X123270811Y-86350959D01*
G75*
G02*
X121611541Y-86440811I-874561J784709D01*
G01*
G37*
D17*
X128746250Y-83026250D03*
G36*
G01*
X128625407Y-84778466D02*
X128625407Y-84778466D01*
G75*
G02*
X127534034Y-83525407I80843J1172216D01*
G01*
X127574034Y-82945407D01*
G75*
G02*
X128827093Y-81854034I1172216J-80843D01*
G01*
X128827093Y-81854034D01*
G75*
G02*
X129918466Y-83107093I-80843J-1172216D01*
G01*
X129878466Y-83687093D01*
G75*
G02*
X128625407Y-84778466I-1172216J80843D01*
G01*
G37*
G04 #@! TD*
D16*
G04 #@! TO.C,MX1*
X131286250Y-69056250D03*
X121126250Y-69056250D03*
D17*
X123706250Y-65056250D03*
D18*
X126206250Y-69056250D03*
G36*
G01*
X121611541Y-67390810D02*
X121611541Y-67390811D01*
G75*
G02*
X121521689Y-65731541I784709J874561D01*
G01*
X122831691Y-64271541D01*
G75*
G02*
X124490961Y-64181689I874561J-784709D01*
G01*
X124490961Y-64181689D01*
G75*
G02*
X124580813Y-65840959I-784709J-874561D01*
G01*
X123270811Y-67300959D01*
G75*
G02*
X121611541Y-67390811I-874561J784709D01*
G01*
G37*
D17*
X128746250Y-63976250D03*
G36*
G01*
X128625407Y-65728466D02*
X128625407Y-65728466D01*
G75*
G02*
X127534034Y-64475407I80843J1172216D01*
G01*
X127574034Y-63895407D01*
G75*
G02*
X128827093Y-62804034I1172216J-80843D01*
G01*
X128827093Y-62804034D01*
G75*
G02*
X129918466Y-64057093I-80843J-1172216D01*
G01*
X129878466Y-64637093D01*
G75*
G02*
X128625407Y-65728466I-1172216J80843D01*
G01*
G37*
G04 #@! TD*
G04 #@! TO.C,F1*
G36*
G01*
X81681000Y-76491000D02*
X80371000Y-76491000D01*
G75*
G02*
X80101000Y-76221000I0J270000D01*
G01*
X80101000Y-75411000D01*
G75*
G02*
X80371000Y-75141000I270000J0D01*
G01*
X81681000Y-75141000D01*
G75*
G02*
X81951000Y-75411000I0J-270000D01*
G01*
X81951000Y-76221000D01*
G75*
G02*
X81681000Y-76491000I-270000J0D01*
G01*
G37*
G36*
G01*
X81681000Y-79291000D02*
X80371000Y-79291000D01*
G75*
G02*
X80101000Y-79021000I0J270000D01*
G01*
X80101000Y-78211000D01*
G75*
G02*
X80371000Y-77941000I270000J0D01*
G01*
X81681000Y-77941000D01*
G75*
G02*
X81951000Y-78211000I0J-270000D01*
G01*
X81951000Y-79021000D01*
G75*
G02*
X81681000Y-79291000I-270000J0D01*
G01*
G37*
G04 #@! TD*
D19*
G04 #@! TO.C,D4*
X153193750Y-86456250D03*
X153193750Y-89756250D03*
G04 #@! TD*
G04 #@! TO.C,D3*
X153193750Y-67406250D03*
X153193750Y-70706250D03*
G04 #@! TD*
G04 #@! TO.C,D2*
X134143750Y-86456250D03*
X134143750Y-89756250D03*
G04 #@! TD*
G04 #@! TO.C,D1*
X134143750Y-67406250D03*
X134143750Y-70706250D03*
G04 #@! TD*
G04 #@! TO.C,C7*
G36*
G01*
X94768750Y-88538000D02*
X95731250Y-88538000D01*
G75*
G02*
X96000000Y-88806750I0J-268750D01*
G01*
X96000000Y-89344250D01*
G75*
G02*
X95731250Y-89613000I-268750J0D01*
G01*
X94768750Y-89613000D01*
G75*
G02*
X94500000Y-89344250I0J268750D01*
G01*
X94500000Y-88806750D01*
G75*
G02*
X94768750Y-88538000I268750J0D01*
G01*
G37*
G36*
G01*
X94768750Y-86663000D02*
X95731250Y-86663000D01*
G75*
G02*
X96000000Y-86931750I0J-268750D01*
G01*
X96000000Y-87469250D01*
G75*
G02*
X95731250Y-87738000I-268750J0D01*
G01*
X94768750Y-87738000D01*
G75*
G02*
X94500000Y-87469250I0J268750D01*
G01*
X94500000Y-86931750D01*
G75*
G02*
X94768750Y-86663000I268750J0D01*
G01*
G37*
G04 #@! TD*
G04 #@! TO.C,C6*
G36*
G01*
X94056250Y-78893750D02*
X94056250Y-79856250D01*
G75*
G02*
X93787500Y-80125000I-268750J0D01*
G01*
X93250000Y-80125000D01*
G75*
G02*
X92981250Y-79856250I0J268750D01*
G01*
X92981250Y-78893750D01*
G75*
G02*
X93250000Y-78625000I268750J0D01*
G01*
X93787500Y-78625000D01*
G75*
G02*
X94056250Y-78893750I0J-268750D01*
G01*
G37*
G36*
G01*
X95931250Y-78893750D02*
X95931250Y-79856250D01*
G75*
G02*
X95662500Y-80125000I-268750J0D01*
G01*
X95125000Y-80125000D01*
G75*
G02*
X94856250Y-79856250I0J268750D01*
G01*
X94856250Y-78893750D01*
G75*
G02*
X95125000Y-78625000I268750J0D01*
G01*
X95662500Y-78625000D01*
G75*
G02*
X95931250Y-78893750I0J-268750D01*
G01*
G37*
G04 #@! TD*
G04 #@! TO.C,C5*
G36*
G01*
X97509250Y-71291500D02*
X96546750Y-71291500D01*
G75*
G02*
X96278000Y-71022750I0J268750D01*
G01*
X96278000Y-70485250D01*
G75*
G02*
X96546750Y-70216500I268750J0D01*
G01*
X97509250Y-70216500D01*
G75*
G02*
X97778000Y-70485250I0J-268750D01*
G01*
X97778000Y-71022750D01*
G75*
G02*
X97509250Y-71291500I-268750J0D01*
G01*
G37*
G36*
G01*
X97509250Y-73166500D02*
X96546750Y-73166500D01*
G75*
G02*
X96278000Y-72897750I0J268750D01*
G01*
X96278000Y-72360250D01*
G75*
G02*
X96546750Y-72091500I268750J0D01*
G01*
X97509250Y-72091500D01*
G75*
G02*
X97778000Y-72360250I0J-268750D01*
G01*
X97778000Y-72897750D01*
G75*
G02*
X97509250Y-73166500I-268750J0D01*
G01*
G37*
G04 #@! TD*
G04 #@! TO.C,C4*
G36*
G01*
X99531250Y-67868750D02*
X100493750Y-67868750D01*
G75*
G02*
X100762500Y-68137500I0J-268750D01*
G01*
X100762500Y-68675000D01*
G75*
G02*
X100493750Y-68943750I-268750J0D01*
G01*
X99531250Y-68943750D01*
G75*
G02*
X99262500Y-68675000I0J268750D01*
G01*
X99262500Y-68137500D01*
G75*
G02*
X99531250Y-67868750I268750J0D01*
G01*
G37*
G36*
G01*
X99531250Y-65993750D02*
X100493750Y-65993750D01*
G75*
G02*
X100762500Y-66262500I0J-268750D01*
G01*
X100762500Y-66800000D01*
G75*
G02*
X100493750Y-67068750I-268750J0D01*
G01*
X99531250Y-67068750D01*
G75*
G02*
X99262500Y-66800000I0J268750D01*
G01*
X99262500Y-66262500D01*
G75*
G02*
X99531250Y-65993750I268750J0D01*
G01*
G37*
G04 #@! TD*
G04 #@! TO.C,C3*
G36*
G01*
X110018750Y-67068750D02*
X109056250Y-67068750D01*
G75*
G02*
X108787500Y-66800000I0J268750D01*
G01*
X108787500Y-66262500D01*
G75*
G02*
X109056250Y-65993750I268750J0D01*
G01*
X110018750Y-65993750D01*
G75*
G02*
X110287500Y-66262500I0J-268750D01*
G01*
X110287500Y-66800000D01*
G75*
G02*
X110018750Y-67068750I-268750J0D01*
G01*
G37*
G36*
G01*
X110018750Y-68943750D02*
X109056250Y-68943750D01*
G75*
G02*
X108787500Y-68675000I0J268750D01*
G01*
X108787500Y-68137500D01*
G75*
G02*
X109056250Y-67868750I268750J0D01*
G01*
X110018750Y-67868750D01*
G75*
G02*
X110287500Y-68137500I0J-268750D01*
G01*
X110287500Y-68675000D01*
G75*
G02*
X110018750Y-68943750I-268750J0D01*
G01*
G37*
G04 #@! TD*
G04 #@! TO.C,C2*
G36*
G01*
X109137500Y-88418750D02*
X109137500Y-89381250D01*
G75*
G02*
X108868750Y-89650000I-268750J0D01*
G01*
X108331250Y-89650000D01*
G75*
G02*
X108062500Y-89381250I0J268750D01*
G01*
X108062500Y-88418750D01*
G75*
G02*
X108331250Y-88150000I268750J0D01*
G01*
X108868750Y-88150000D01*
G75*
G02*
X109137500Y-88418750I0J-268750D01*
G01*
G37*
G36*
G01*
X111012500Y-88418750D02*
X111012500Y-89381250D01*
G75*
G02*
X110743750Y-89650000I-268750J0D01*
G01*
X110206250Y-89650000D01*
G75*
G02*
X109937500Y-89381250I0J268750D01*
G01*
X109937500Y-88418750D01*
G75*
G02*
X110206250Y-88150000I268750J0D01*
G01*
X110743750Y-88150000D01*
G75*
G02*
X111012500Y-88418750I0J-268750D01*
G01*
G37*
G04 #@! TD*
G04 #@! TO.C,C1*
G36*
G01*
X114781250Y-75006250D02*
X113818750Y-75006250D01*
G75*
G02*
X113550000Y-74737500I0J268750D01*
G01*
X113550000Y-74200000D01*
G75*
G02*
X113818750Y-73931250I268750J0D01*
G01*
X114781250Y-73931250D01*
G75*
G02*
X115050000Y-74200000I0J-268750D01*
G01*
X115050000Y-74737500D01*
G75*
G02*
X114781250Y-75006250I-268750J0D01*
G01*
G37*
G36*
G01*
X114781250Y-76881250D02*
X113818750Y-76881250D01*
G75*
G02*
X113550000Y-76612500I0J268750D01*
G01*
X113550000Y-76075000D01*
G75*
G02*
X113818750Y-75806250I268750J0D01*
G01*
X114781250Y-75806250D01*
G75*
G02*
X115050000Y-76075000I0J-268750D01*
G01*
X115050000Y-76612500D01*
G75*
G02*
X114781250Y-76881250I-268750J0D01*
G01*
G37*
G04 #@! TD*
M02*
