M48
; DRILL file {KiCad (5.1.6)-1} date 06/20/20 22:40:27
; FORMAT={-:-/ absolute / inch / decimal}
; #@! TF.CreationDate,2020-06-20T22:40:27-04:00
; #@! TF.GenerationSoftware,Kicad,Pcbnew,(5.1.6)-1
; #@! TF.FileFunction,Plated,1,2,PTH
FMAT,2
INCH
T1C0.0157
T2C0.0276
T3C0.0579
%
G90
G05
T1
X3.595Y-2.865
X3.595Y-3.565
X3.75Y-2.8
X3.82Y-3.125
X3.82Y-3.285
X4.41Y-3.5
X4.57Y-3.005
T3
X4.8187Y-3.3687
X4.8703Y-3.3113
X5.0672Y-3.2916
X5.0687Y-3.2687
X5.5687Y-3.3687
X5.6203Y-3.3113
X5.8172Y-3.2916
X5.8187Y-3.2687
X5.5687Y-2.6187
X5.6203Y-2.5613
X5.8172Y-2.5416
X5.8187Y-2.5187
X4.8187Y-2.6187
X4.8703Y-2.5613
X5.0672Y-2.5416
X5.0687Y-2.5187
T2
G00X3.2Y-2.3826
M15
G01X3.2Y-2.4299
M16
G05
G00X3.2Y-2.5598
M15
G01X3.2Y-2.607
M16
G05
G00X3.4875Y-2.3826
M15
G01X3.4875Y-2.4299
M16
G05
G00X3.4875Y-2.5598
M15
G01X3.4875Y-2.607
M16
G05
T0
M30
